<svg xmlns="http://www.w3.org/2000/svg" viewBox="0 0 40 40" class="pageHeader-icon" aria-label="USAA Home"><path fill="#fff" fill-rule="evenodd" d="M31.38 27.9s.99.66 1.94.66c.97 0 1.81-.69 1.81-.69v-3.36s-.85.6-1.8.6c-.95 0-1.95-.65-1.95-.65l-9.87-5.81.92 3.98 8.95 5.27zM4.75 17.53s-.95-.66-1.95-.66c-.99 0-1.8.7-1.8.7v3.35s.81-.6 1.8-.6c1 0 1.95.66 1.95.66l8.15 4.8.7-3.04-8.85-5.2zm26.63 5.98s.99.66 1.94.66c.97 0 1.81-.7 1.81-.7v-3.35s-.85.6-1.8.6c-.95 0-1.95-.65-1.95-.65l-11.03-6.5.91 3.98 10.12 5.96zM4.75 13.14s-.95-.66-1.95-.66c-.99 0-1.8.69-1.8.69v3.36s.81-.6 1.8-.6c1 0 1.95.65 1.95.65l9.04 5.32.7-3.03-9.74-5.73zm26.63 5.98s.99.65 1.94.65c.97 0 1.81-.68 1.81-.68v-3.36s-.85.6-1.8.6c-.95 0-1.95-.65-1.95-.65l-12.2-7.2.92 4 11.28 6.64zM4.75 8.75s-.95-.66-1.95-.66c-.99 0-1.8.69-1.8.69v3.35s.81-.6 1.8-.6c1 0 1.95.66 1.95.66l9.92 5.84.7-3.03L4.75 8.75zm14.18-1.36l12.45 7.33s.99.66 1.94.66c.97 0 1.81-.69 1.81-.69v-3.36s-.85.61-1.8.61c-.95 0-1.95-.66-1.95-.66l-9.63-5.67-.66-2.54c0-.11.1-.16.13-.17l1.63-.51c.22 0 .34.19.34.35l.1.18c.05.03.31-.05.31-.1v-1c.01-.67-.52-1.26-1.23-1.26h-1.64S20.5 0 19.8 0h-3.1c-.8 0-1 .78-1 .78l-2.16 8.76-8.79-5.18S3.8 3.7 2.8 3.7c-.99 0-1.8.68-1.8.68v3.36s.81-.6 1.8-.6c1 0 1.95.66 1.95.66l10.81 6.36 2.46-10.73.91 3.96zm-1.96 29.44c0 1.82-1.49 3.15-3.55 3.15-2.17 0-2.89-.37-2.89-.37l-.18-2.02s1.2.8 2.97.8c.5 0 1.6-.34 1.6-1.34 0-.95-.87-1.25-1.08-1.36-.43-.23-.95-.46-1.37-.67-.8-.4-1.98-1.15-1.98-2.74 0-2.3 2.07-3.14 3.7-3.14 1.32 0 2.48.58 2.48.58v1.88c-.37-.21-.98-.89-2.48-.89-1.02 0-1.71.54-1.71 1.3 0 .7.58 1.17 1.14 1.43.56.26.93.43 1.58.75.81.4 1.77 1.23 1.77 2.64zm-9.7-.87c0 .84-.28 2.42-2.2 2.39C3.33 38.3 3 36.7 3 35.68v-6.34H1v6.44C1 39.4 3.22 40 5.07 40c2.75 0 4.02-1.8 4.02-4.26v-6.4H7.27v6.62zm27.86 3.8h-2.18l-.63-1.82H28.6l-.63 1.83h-3.72l-.63-1.83H19.9l-.63 1.83H17.3l3.6-9.62-.35-.81h2.18l3.5 9.83 3.37-9.02-.34-.81h2.17l3.7 10.43zm-12-3.28l-1.3-4.11-1.45 4.1h2.75zm8.7 0l-1.3-4.11-1.44 4.1h2.74zm3.82-6.66a2.27 2.27 0 00-.84 3.06 2.27 2.27 0 003.06.83 2.27 2.27 0 00.83-3.07 2.3 2.3 0 00-1.94-1.12c-.38 0-.75.1-1.1.3zm2.03.32a1.89 1.89 0 01.7 2.56 1.89 1.89 0 01-2.55.7 1.87 1.87 0 111.85-3.25zm-1.52 2.87v-1.03h.23a.5.5 0 01.31.09c.1.07.24.26.41.56l.22.38h.47l-.3-.48a2.79 2.79 0 00-.35-.47.67.67 0 00-.2-.13c.2-.02.37-.09.5-.22a.64.64 0 00.07-.81.6.6 0 00-.3-.24 2.03 2.03 0 00-.62-.06h-.83V33h.4zm0-2.09h.45c.19 0 .32.02.39.04.07.03.12.07.16.13.04.06.06.12.06.2 0 .1-.04.2-.12.26-.08.07-.24.1-.46.1h-.48v-.73z"></path></svg>